# xmcd CD database file
# Copyright (C) 1993-1998 Ti Kan
#
# Track frame offsets:
# 150
# 17507
# 36222
# 52385
# 67885
# 90835
# 108572
# 126122
# 141660
# 160810
#
# Disc length: 2404 seconds
# Revision: 0
# Processed by: cddbd v1.4b41PL1 Copyright (c) Steve Scherf et al.
# Submitted via: CDSpectrumPro v3.3.331
#
DISCID=8609620a
DTITLE=Chet Atkins - Pickin' The Hits [Chet Atkins]
DYEAR=1900
DGENRE=
TTITLE0=Vincent
TTITLE1=Imagine
TTITLE2=Quiet Eyes
TTITLE3=Sweet Dreams
TTITLE4=Summertime
TTITLE5=Classical Gas
TTITLE6=Tara's Theme (From Gone With The Wind)
TTITLE7=Yackety Axe
TTITLE8=The Last Farewell
TTITLE9=Sails
EXTD=
EXTT0=
EXTT1=
EXTT2=
EXTT3=
EXTT4=
EXTT5=
EXTT6=
EXTT7=
EXTT8=
EXTT9=
PLAYORDER=
